<svg width="33" height="33" viewBox="0 0 33 33" fill="none" xmlns="http://www.w3.org/2000/svg">
<path d="M21.2443 15.8569C20.8207 15.8569 20.4709 16.0036 20.1947 16.2967C19.9187 16.59 19.7827 16.9885 19.7876 17.4916H22.6865C22.6725 16.9576 22.5276 16.5516 22.2516 16.2736C21.9756 15.9956 21.6396 15.8569 21.2443 15.8569ZM14.4934 17.7409C14.2283 17.6489 13.6541 17.6034 12.7694 17.6034H11.1998V20.1772H12.9994C13.6994 20.1772 14.1438 20.1576 14.3323 20.118C14.6214 20.0656 14.8565 19.9374 15.0385 19.7338C15.2198 19.5303 15.3107 19.2576 15.3107 18.9165C15.3107 18.6274 15.2409 18.3823 15.1007 18.1807C14.9605 17.9792 14.7583 17.8332 14.4934 17.7409Z" fill="#FAFAFA"/>
<path d="M16.9905 4.13379C9.89269 4.13379 4.13892 9.88801 4.13892 16.9858C4.13892 24.0836 9.89292 29.8378 16.9905 29.8378C24.0885 29.8378 29.8429 24.0833 29.8429 16.9858C29.8427 9.88801 24.0885 4.13379 16.9905 4.13379ZM19.2707 12.5842H23.1545V13.5236H19.2707V12.5842ZM17.0151 20.2858C16.8116 20.6993 16.5334 21.0302 16.1809 21.2776C15.8285 21.5245 15.394 21.6769 14.8776 21.7338C14.5534 21.7689 13.772 21.7907 12.5329 21.7998H9.25647V12.1725H13.1045C13.8663 12.1725 14.4342 12.2042 14.8085 12.2678C15.1827 12.3313 15.5176 12.4636 15.8131 12.6649C16.1082 12.8662 16.3549 13.1345 16.5518 13.4693C16.7487 13.8042 16.8474 14.1796 16.8474 14.5953C16.8474 15.0462 16.7258 15.4602 16.4827 15.8367C16.2396 16.2131 15.9102 16.4956 15.4945 16.6838C16.0809 16.8547 16.5323 17.146 16.8474 17.5569C17.1625 17.9689 17.32 18.4522 17.32 19.0082C17.3203 19.4462 17.2187 19.872 17.0151 20.2858ZM20.2225 19.8989C20.5216 20.2031 20.8943 20.3551 21.3405 20.3551C21.6443 20.3551 21.8996 20.2762 22.1069 20.1187C22.3136 19.9611 22.4703 19.8427 22.576 19.4925L24.5669 19.4807C24.5538 20.1251 23.8678 20.8536 23.3316 21.2056C22.7956 21.558 22.1249 21.7342 21.3194 21.7342C20.0451 21.7342 19.1016 21.3385 18.49 20.5458C18.0065 19.9109 17.7651 19.1096 17.7651 18.1422C17.7651 16.9865 18.0825 16.0816 18.7174 15.4271C19.3523 14.7727 20.1554 14.4453 21.1263 14.4453C22.2169 14.4453 23.0771 14.788 23.7078 15.4729C24.338 16.1582 24.6391 17.2078 24.6118 18.6218H19.7534C19.7674 19.1685 19.9236 19.5942 20.2225 19.8989Z" fill="#FAFAFA"/>
<path d="M13.8857 15.9681C14.2186 15.9286 14.48 15.8139 14.6704 15.6232C14.8608 15.433 14.956 15.1823 14.956 14.8712C14.956 14.5737 14.874 14.3319 14.71 14.1454C14.546 13.9597 14.3015 13.8468 13.9777 13.8074C13.7851 13.7854 13.2313 13.7748 12.3162 13.7748H11.2V16.001H12.4737C13.2313 16.001 13.7022 15.9901 13.8857 15.9681Z" fill="#FAFAFA"/>
</svg>
