<svg width="16" height="16" viewBox="0 0 16 16" fill="none" xmlns="http://www.w3.org/2000/svg">
<path d="M0 8C0 3.58172 3.58172 0 8 0V0C12.4183 0 16 3.58172 16 8V8C16 12.4183 12.4183 16 8 16V16C3.58172 16 0 12.4183 0 8V8Z" fill="#F5F5F5"/>
<path d="M3 10.9155V5H4.34366V7.87324H4.8507L6.81972 5H8.29859L6.32958 7.84789L8.42535 10.9155H6.81127L4.84225 8.04225H4.34366V10.9155H3Z" fill="#0A0A0A"/>
<path d="M9.86039 11C9.63503 11 9.44349 10.9239 9.28574 10.7718C9.13363 10.6141 9.05757 10.4225 9.05757 10.1972C9.05757 9.9662 9.13363 9.77465 9.28574 9.62254C9.44349 9.47042 9.63503 9.39437 9.86039 9.39437C10.0857 9.39437 10.2745 9.47042 10.4266 9.62254C10.5843 9.77465 10.6632 9.9662 10.6632 10.1972C10.6632 10.4225 10.5843 10.6141 10.4266 10.7718C10.2745 10.9239 10.0857 11 9.86039 11ZM9.86039 8.32958C9.63503 8.32958 9.44349 8.25352 9.28574 8.10141C9.13363 7.94366 9.05757 7.75211 9.05757 7.52676C9.05757 7.29577 9.13363 7.10423 9.28574 6.95211C9.44349 6.8 9.63503 6.72394 9.86039 6.72394C10.0857 6.72394 10.2745 6.8 10.4266 6.95211C10.5843 7.10423 10.6632 7.29577 10.6632 7.52676C10.6632 7.75211 10.5843 7.94366 10.4266 8.10141C10.2745 8.25352 10.0857 8.32958 9.86039 8.32958Z" fill="#0A0A0A"/>
<path d="M12.427 11C12.2016 11 12.0101 10.9239 11.8523 10.7718C11.7002 10.6141 11.6241 10.4225 11.6241 10.1972C11.6241 9.9662 11.7002 9.77465 11.8523 9.62254C12.0101 9.47042 12.2016 9.39437 12.427 9.39437C12.6523 9.39437 12.841 9.47042 12.9932 9.62254C13.1509 9.77465 13.2298 9.9662 13.2298 10.1972C13.2298 10.4225 13.1509 10.6141 12.9932 10.7718C12.841 10.9239 12.6523 11 12.427 11ZM12.427 8.32958C12.2016 8.32958 12.0101 8.25352 11.8523 8.10141C11.7002 7.94366 11.6241 7.75211 11.6241 7.52676C11.6241 7.29577 11.7002 7.10423 11.8523 6.95211C12.0101 6.8 12.2016 6.72394 12.427 6.72394C12.6523 6.72394 12.841 6.8 12.9932 6.95211C13.1509 7.10423 13.2298 7.29577 13.2298 7.52676C13.2298 7.75211 13.1509 7.94366 12.9932 8.10141C12.841 8.25352 12.6523 8.32958 12.427 8.32958Z" fill="#0A0A0A"/>
</svg>
