<svg width="33" height="33" viewBox="0 0 33 33" fill="none" xmlns="http://www.w3.org/2000/svg">
<path d="M16.9904 4.13379C9.89289 4.13379 4.13867 9.88801 4.13867 16.9856C4.13867 24.0833 9.89267 29.8378 16.9904 29.8378C24.0884 29.8378 29.8429 24.0833 29.8429 16.9856C29.8427 9.88801 24.0884 4.13379 16.9904 4.13379ZM11.6576 9.93023C12.5318 9.93023 13.2409 10.5769 13.2409 11.3747C13.2409 12.1725 12.5318 12.8191 11.6576 12.8191C10.7829 12.8191 10.0742 12.1725 10.0742 11.3747C10.0742 10.5769 10.7829 9.93023 11.6576 9.93023ZM13.2529 22.2847H10.1244V14.1213H13.2529V22.2847ZM23.8836 22.2847H20.74V17.7958C20.74 17.2833 20.6449 16.9207 20.4553 16.7078C20.2656 16.4953 19.9991 16.3887 19.6562 16.3887C19.2769 16.3887 18.9691 16.5322 18.7336 16.8193C18.4978 17.1065 18.3802 17.6213 18.3802 18.3645V22.2847H15.2516V14.1213H18.1647V15.4509C18.6 14.908 19.0409 14.5198 19.4867 14.2865C19.9325 14.0533 20.4753 13.9369 21.116 13.9369C21.9822 13.9369 22.6598 14.1942 23.1493 14.7093C23.6384 15.2242 23.8833 16.0198 23.8833 17.096L23.8836 22.2847Z" fill="#FAFAFA"/>
</svg>
