<svg width="32" height="33" viewBox="0 0 32 33" fill="none" xmlns="http://www.w3.org/2000/svg">
<path d="M15.52 3.65247C8.42117 3.65247 2.66663 9.40701 2.66663 16.5058C2.66663 23.6046 8.42117 29.3591 15.52 29.3591C22.6187 29.3591 28.3733 23.6046 28.3733 16.5058C28.3733 9.40701 22.6187 3.65247 15.52 3.65247ZM10.4737 12.4891H20.5421C21.0764 12.4891 20.8005 13.1746 20.51 13.35C20.2195 13.5241 16.1988 15.9569 16.0475 16.0466C15.8962 16.1363 15.7034 16.1805 15.5079 16.1805C15.3198 16.1843 15.1341 16.1381 14.9697 16.0466L10.5058 13.35C10.2153 13.1746 9.94081 12.4891 10.4737 12.4891ZM20.8755 19.853C20.8755 20.1342 20.5381 20.5225 20.281 20.5225H10.7589C10.5018 20.5225 10.1644 20.1342 10.1644 19.853V14.9701C10.1644 14.8469 10.1617 14.6876 10.3947 14.8228L14.9697 17.5207C15.1311 17.6194 15.319 17.6661 15.5079 17.6546C15.7034 17.6546 15.8453 17.6398 16.0475 17.5207L20.6452 14.8242C20.8782 14.6876 20.8755 14.8483 20.8755 14.9714V19.853Z" fill="#FAFAFA"/>
</svg>
