<svg width="32" height="33" viewBox="0 0 32 33" fill="none" xmlns="http://www.w3.org/2000/svg">
<path fill-rule="evenodd" clip-rule="evenodd" d="M15.3762 29.3591C22.4751 29.3591 28.2295 23.6047 28.2295 16.5058C28.2295 9.4069 22.4751 3.65247 15.3762 3.65247C8.27727 3.65247 2.52283 9.4069 2.52283 16.5058C2.52283 23.6047 8.27727 29.3591 15.3762 29.3591ZM19.5304 18.2551L21.5149 20.2448C21.9095 20.642 21.8967 21.2988 21.4892 21.7101L20.9211 22.2654L20.9082 22.2538C20.4321 22.6193 19.8666 22.8501 19.2707 22.9222C19.1422 22.9363 16.1409 23.2178 12.416 19.4852C9.72069 16.7847 8.72713 14.7937 8.99062 12.6164C9.02019 12.3439 9.08702 12.074 9.19628 11.7899C9.31196 11.4917 9.46877 11.2141 9.65643 10.975L9.641 10.9596L10.2001 10.3953C10.6101 9.98402 11.2657 9.97245 11.659 10.3683L13.6448 12.358C14.0394 12.7539 14.0278 13.4094 13.6191 13.8207L13.2875 14.1511L12.6165 14.8233C12.6531 14.8873 12.6891 14.9515 12.7245 15.0161L12.7258 15.02C13.0767 15.6536 13.5574 16.5199 14.4674 17.4312C15.3774 18.3438 16.2412 18.8245 16.8736 19.1754L17.0702 19.286L18.0702 18.2834C18.4802 17.8721 19.1345 17.8605 19.5304 18.2564V18.2551Z" fill="#FAFAFA"/>
</svg>
