<svg width="444" height="181" viewBox="0 0 444 181" fill="none" xmlns="http://www.w3.org/2000/svg">
<path d="M0.500002 178V2.99999H30.25V88H51.25L114 2.99999H147L83.75 88.25L149.75 178H113.75L51 93H30.25V178H0.500002ZM168.361 178V0.49999H194.611V94C197.445 80.8333 203.028 70.3333 211.361 62.5C219.861 54.5 229.945 50.5 241.611 50.5C251.611 50.5 260.278 52.9167 267.611 57.75C275.111 62.4167 280.861 69.1667 284.861 78C288.861 86.6667 290.861 96.9167 290.861 108.75V178H264.361V112.75C264.361 101.25 261.195 92.0833 254.861 85.25C248.695 78.4167 240.278 75 229.611 75C223.111 75 217.195 76.6667 211.861 80C206.528 83.3333 202.278 87.9167 199.111 93.75C196.111 99.4167 194.611 105.75 194.611 112.75V178H168.361ZM349.15 181C337.484 181 328.234 178.25 321.4 172.75C314.567 167.083 311.15 159.333 311.15 149.5C311.15 139.833 314.317 132.333 320.65 127C327.15 121.667 334.817 118 343.65 116C352.484 113.833 362.484 112.333 373.65 111.5C383.15 110.833 390.4 109.667 395.4 108C400.567 106.333 403.15 103.25 403.15 98.75C403.15 90.4167 400.317 83.8333 394.65 79C388.984 74.1667 381.9 71.75 373.4 71.75C364.234 71.75 356.65 74.3333 350.65 79.5C344.817 84.5 341.317 91.5 340.15 100.5H315.65C316.484 90 319.484 81 324.65 73.5C329.984 66 336.9 60.3333 345.4 56.5C354.067 52.5 363.567 50.5 373.9 50.5C384.4 50.5 393.65 52.5 401.65 56.5C409.817 60.5 416.15 66.3333 420.65 74C425.15 81.6667 427.4 90.6667 427.4 101V154.75H443.4V178H403.4V135.5C400.067 148.833 393.65 159.75 384.15 168.25C374.65 176.75 362.984 181 349.15 181ZM361.4 160.25C369.067 160.25 376.067 158.333 382.4 154.5C388.9 150.5 393.984 145.333 397.65 139C401.317 132.5 403.15 125.5 403.15 118L403.4 109C401.234 111 398.317 112.5 394.65 113.5C391.15 114.333 386.317 115.083 380.15 115.75C379.817 115.75 379.4 115.833 378.9 116C378.567 116 378.234 116 377.9 116C364.4 117.167 354.317 119.667 347.65 123.5C341.15 127.333 337.9 133 337.9 140.5C337.9 147 339.984 151.917 344.15 155.25C348.484 158.583 354.234 160.25 361.4 160.25Z" fill="#FAFAFA"/>
</svg>
