<svg width="28" height="16" viewBox="0 0 28 16" fill="none" xmlns="http://www.w3.org/2000/svg">
<path d="M0 15.7746V0H3.5831V7.66197H4.93521L10.1859 0H14.1296L8.87887 7.59437L14.4676 15.7746H10.1634L4.91268 8.11268H3.5831V15.7746H0Z" fill="#0A0A0A"/>
<path d="M18.2944 16C17.6934 16 17.1826 15.7972 16.762 15.3915C16.3563 14.9709 16.1535 14.4601 16.1535 13.8592C16.1535 13.2432 16.3563 12.7324 16.762 12.3268C17.1826 11.9211 17.6934 11.7183 18.2944 11.7183C18.8953 11.7183 19.3986 11.9211 19.8042 12.3268C20.2249 12.7324 20.4352 13.2432 20.4352 13.8592C20.4352 14.4601 20.2249 14.9709 19.8042 15.3915C19.3986 15.7972 18.8953 16 18.2944 16ZM18.2944 8.87887C17.6934 8.87887 17.1826 8.67606 16.762 8.27042C16.3563 7.84977 16.1535 7.33897 16.1535 6.73803C16.1535 6.12207 16.3563 5.61127 16.762 5.20563C17.1826 4.8 17.6934 4.59718 18.2944 4.59718C18.8953 4.59718 19.3986 4.8 19.8042 5.20563C20.2249 5.61127 20.4352 6.12207 20.4352 6.73803C20.4352 7.33897 20.2249 7.84977 19.8042 8.27042C19.3986 8.67606 18.8953 8.87887 18.2944 8.87887Z" fill="#0A0A0A"/>
<path d="M25.1386 16C24.5376 16 24.0268 15.7972 23.6062 15.3915C23.2005 14.9709 22.9977 14.4601 22.9977 13.8592C22.9977 13.2432 23.2005 12.7324 23.6062 12.3268C24.0268 11.9211 24.5376 11.7183 25.1386 11.7183C25.7395 11.7183 26.2428 11.9211 26.6484 12.3268C27.0691 12.7324 27.2794 13.2432 27.2794 13.8592C27.2794 14.4601 27.0691 14.9709 26.6484 15.3915C26.2428 15.7972 25.7395 16 25.1386 16ZM25.1386 8.87887C24.5376 8.87887 24.0268 8.67606 23.6062 8.27042C23.2005 7.84977 22.9977 7.33897 22.9977 6.73803C22.9977 6.12207 23.2005 5.61127 23.6062 5.20563C24.0268 4.8 24.5376 4.59718 25.1386 4.59718C25.7395 4.59718 26.2428 4.8 26.6484 5.20563C27.0691 5.61127 27.2794 6.12207 27.2794 6.73803C27.2794 7.33897 27.0691 7.84977 26.6484 8.27042C26.2428 8.67606 25.7395 8.87887 25.1386 8.87887Z" fill="#0A0A0A"/>
</svg>
