<svg width="565" height="165" viewBox="0 0 565 165" fill="none" xmlns="http://www.w3.org/2000/svg">
<path d="M72.7911 164.45C58.3777 164.45 45.7277 161.46 34.8411 155.48C23.9544 149.347 15.5211 140.76 9.54107 129.72C3.56107 118.68 0.571071 105.8 0.571071 91.08V-1.09673e-05H28.1711V89.7C28.1711 99.6667 29.9344 108.253 33.4611 115.46C37.1411 122.667 42.2777 128.187 48.8711 132.02C55.6177 135.853 63.5911 137.77 72.7911 137.77C82.1444 137.77 90.1177 135.853 96.7111 132.02C103.458 128.187 108.594 122.667 112.121 115.46C115.648 108.253 117.411 99.6667 117.411 89.7V-1.09673e-05H145.011V91.08C145.011 105.8 142.021 118.68 136.041 129.72C130.214 140.76 121.858 149.347 110.971 155.48C100.084 161.46 87.3577 164.45 72.7911 164.45ZM137.815 161L197.385 78.43L140.115 -1.09673e-05H172.315L217.395 61.18L262.475 -1.09673e-05H293.985L236.485 78.2L296.515 161H263.855L216.935 97.06L169.555 161H137.815ZM276.185 161L353.925 -1.09673e-05H377.615L299.875 161H276.185ZM447.583 164.45C433.17 164.45 420.52 161.46 409.633 155.48C398.747 149.347 390.313 140.76 384.333 129.72C378.353 118.68 375.363 105.8 375.363 91.08V-1.09673e-05H402.963V89.7C402.963 99.6667 404.727 108.253 408.253 115.46C411.933 122.667 417.07 128.187 423.663 132.02C430.41 135.853 438.383 137.77 447.583 137.77C456.937 137.77 464.91 135.853 471.503 132.02C478.25 128.187 483.387 122.667 486.913 115.46C490.44 108.253 492.203 99.6667 492.203 89.7V-1.09673e-05H519.803V91.08C519.803 105.8 516.813 118.68 510.833 129.72C505.007 140.76 496.65 149.347 485.763 155.48C474.877 161.46 462.15 164.45 447.583 164.45ZM537.136 161V-1.09673e-05H564.736V161H537.136Z" fill="#E5E5E5" fill-opacity="0.6"/>
</svg>
